<?xml version="1.0" standalone="no"?>
<!DOCTYPE svg PUBLIC "-//W3C//DTD SVG 20010904//EN"
 "http://www.w3.org/TR/2001/REC-SVG-20010904/DTD/svg10.dtd">
<svg version="1.0" xmlns="http://www.w3.org/2000/svg"
 width="512.000000pt" height="512.000000pt" viewBox="0 0 512.000000 512.000000"
 preserveAspectRatio="xMidYMid meet">
<metadata>
Created by potrace 1.14, written by Peter Selinger 2001-2017
</metadata>
<g transform="translate(0.000000,512.000000) scale(0.100000,-0.100000)"
fill="#000000" stroke="none">
<path d="M2512 5100 c-25 -24 -24 -18 -27 -170 -2 -135 10 -175 56 -185 35 -8
76 15 88 48 6 18 8 202 2 269 -4 49 -81 73 -119 38z"/>
<path d="M1435 4805 c-14 -13 -25 -34 -25 -46 0 -30 116 -234 146 -258 46 -36
114 -4 114 53 0 36 -98 218 -137 254 -32 29 -68 28 -98 -3z"/>
<path d="M3582 4802 c-15 -16 -37 -49 -50 -73 -13 -24 -36 -64 -52 -89 -48
-76 -35 -143 31 -153 13 -2 34 0 45 5 26 12 154 233 154 266 0 31 -43 72 -76
72 -16 0 -36 -11 -52 -28z"/>
<path d="M2428 4545 c-1 -2 -25 -6 -53 -9 -558 -62 -1043 -405 -1303 -921
-109 -218 -164 -452 -165 -710 -2 -283 51 -510 177 -759 124 -245 282 -430
516 -603 113 -82 143 -116 184 -203 l31 -65 3 -265 c2 -160 7 -276 14 -293 13
-33 70 -85 103 -93 25 -6 25 -8 25 -111 0 -77 4 -114 16 -140 25 -51 72 -82
138 -91 l57 -7 33 -83 c37 -91 69 -132 131 -165 37 -20 55 -22 220 -22 180 0
180 0 230 29 60 34 104 89 135 171 13 33 26 63 29 67 3 4 27 9 53 11 65 6 109
34 136 87 18 37 22 60 22 146 l0 101 38 15 c41 16 86 67 95 108 4 14 7 137 7
273 1 264 7 299 56 378 34 55 60 79 167 158 140 103 231 191 361 351 104 128
251 433 280 582 2 13 11 55 20 94 22 102 30 193 28 337 -5 633 -374 1205 -952
1480 -123 58 -315 117 -435 133 -27 3 -54 8 -58 11 -9 6 -333 13 -339 8z"/>
<path d="M684 4042 c-57 -9 -80 -97 -34 -130 60 -43 227 -132 248 -132 30 0
72 42 72 72 0 39 -25 63 -127 121 -127 70 -134 74 -159 69z"/>
<path d="M4401 4038 c-50 -18 -222 -122 -236 -141 -8 -12 -15 -32 -15 -45 0
-30 42 -72 72 -72 26 0 226 110 251 138 27 30 30 65 8 94 -24 30 -48 38 -80
26z"/>
<path d="M373 2958 c-48 -23 -44 -117 6 -133 17 -5 191 -9 267 -6 61 3 87 92
38 130 -24 19 -40 21 -158 20 -72 0 -141 -5 -153 -11z"/>
<path d="M4437 2950 c-36 -28 -37 -77 -2 -110 24 -22 32 -23 164 -23 149 0
161 4 180 55 10 27 -2 66 -27 84 -11 8 -62 13 -152 13 -125 2 -139 0 -163 -19z"/>
<path d="M840 1986 c-107 -55 -177 -98 -198 -122 -28 -32 -23 -70 13 -102 30
-25 59 -24 108 7 18 10 56 32 86 48 73 37 121 84 121 115 0 28 -44 78 -69 78
-9 0 -36 -11 -61 -24z"/>
<path d="M4203 2003 c-27 -5 -53 -39 -53 -69 0 -27 32 -69 68 -87 15 -8 60
-33 101 -56 40 -24 82 -44 93 -46 30 -6 65 15 78 46 20 48 -3 76 -120 145
-111 65 -132 74 -167 67z"/>
<path d="M1537 1268 c-13 -18 -48 -75 -76 -127 -44 -77 -52 -99 -47 -126 8
-41 55 -68 95 -54 35 12 161 223 161 269 0 41 -31 70 -74 70 -28 0 -40 -7 -59
-32z"/>
<path d="M3470 1280 c-19 -19 -25 -38 -20 -70 3 -22 121 -223 139 -237 45 -33
107 -10 117 43 5 28 -2 48 -46 126 -80 141 -95 158 -136 158 -21 0 -42 -8 -54
-20z"/>
</g>
</svg>
